HIERARCHY
ROOT joint_Root
{
	OFFSET 0.0 0.0 0.0
	CHANNELS 6 Xposition Yposition Zposition Zrotation Xrotation Yrotation 
	JOINT Hips
	{
		OFFSET -17.1583 93.1646 452.98
		CHANNELS 6 Xposition Yposition Zposition Zrotation Xrotation Yrotation 
		JOINT Spine
		{
			OFFSET 15.7357 0.0 0.0
			CHANNELS 6 Xposition Yposition Zposition Zrotation Xrotation Yrotation 
			JOINT Chest
			{
				OFFSET 8.98455 -0.406207 0.0
				CHANNELS 6 Xposition Yposition Zposition Zrotation Xrotation Yrotation 
				JOINT Neck
				{
					OFFSET 16.3773 0.0 0.0
					CHANNELS 6 Xposition Yposition Zposition Zrotation Xrotation Yrotation 
					JOINT Head
					{
						OFFSET 6.45672 0.0 0.0
						CHANNELS 6 Xposition Yposition Zposition Zrotation Xrotation Yrotation 
						End Site
						{
							OFFSET 0.0 0.0 0.0
						}
					}
				}
				JOINT Shoulder_L
				{
					OFFSET 12.9942 -0.242716 4.98039
					CHANNELS 6 Xposition Yposition Zposition Zrotation Xrotation Yrotation 
					JOINT UpperArm_L
					{
						OFFSET 5.34809 0.0 0.0
						CHANNELS 6 Xposition Yposition Zposition Zrotation Xrotation Yrotation 
						JOINT LowerArm_L
						{
							OFFSET 24.3286 1.87007e-05 0.0
							CHANNELS 6 Xposition Yposition Zposition Zrotation Xrotation Yrotation 
							JOINT Hand_L
							{
								OFFSET 22.2916 0.0 0.0
								CHANNELS 6 Xposition Yposition Zposition Zrotation Xrotation Yrotation 
								End Site
								{
									OFFSET 0.0 0.0 0.0
								}
							}
						}
					}
				}
				JOINT Shoulder_R
				{
					OFFSET 12.9945 -0.242716 -4.98039
					CHANNELS 6 Xposition Yposition Zposition Zrotation Xrotation Yrotation 
					JOINT UpperArm_R
					{
						OFFSET -5.34813 0.0 0.0
						CHANNELS 6 Xposition Yposition Zposition Zrotation Xrotation Yrotation 
						JOINT LowerArm_R
						{
							OFFSET -24.3289 0.000322201 0.0
							CHANNELS 6 Xposition Yposition Zposition Zrotation Xrotation Yrotation 
							JOINT Hand_R
							{
								OFFSET -22.2915 -0.000108084 0.0
								CHANNELS 6 Xposition Yposition Zposition Zrotation Xrotation Yrotation 
								End Site
								{
									OFFSET 0.0 0.0 0.0
								}
							}
						}
					}
				}
			}
		}
		JOINT UpperLeg_L
		{
			OFFSET -2.19248 -6.46944 0.0
			CHANNELS 6 Xposition Yposition Zposition Zrotation Xrotation Yrotation 
			JOINT LowerLeg_L
			{
				OFFSET 39.0811 0.0 -1.23785e-05
				CHANNELS 6 Xposition Yposition Zposition Zrotation Xrotation Yrotation 
				JOINT Foot_L
				{
					OFFSET 40.9854 0.0 -1.26872e-05
					CHANNELS 6 Xposition Yposition Zposition Zrotation Xrotation Yrotation 
					JOINT Toes_L
					{
						OFFSET 11.7543 0.0 0.0
						CHANNELS 6 Xposition Yposition Zposition Zrotation Xrotation Yrotation 
						End Site
						{
							OFFSET 0.0 0.0 0.0
						}
					}
				}
			}
		}
		JOINT UpperLeg_R
		{
			OFFSET -2.19251 6.46944 0.0
			CHANNELS 6 Xposition Yposition Zposition Zrotation Xrotation Yrotation 
			JOINT LowerLeg_R
			{
				OFFSET -39.0811 -0.00228153 -0.0401928
				CHANNELS 6 Xposition Yposition Zposition Zrotation Xrotation Yrotation 
				JOINT Foot_R
				{
					OFFSET -40.9854 0.0 0.0
					CHANNELS 6 Xposition Yposition Zposition Zrotation Xrotation Yrotation 
					JOINT Toes_R
					{
						OFFSET -11.7543 0.0 0.0
						CHANNELS 6 Xposition Yposition Zposition Zrotation Xrotation Yrotation 
						End Site
						{
							OFFSET 0.0 0.0 0.0
						}
					}
				}
			}
		}
	}
}
MOTION
Frames:	5
Frame Time:	0.0333333
0.000000 0.000000 0.000000 0.000000 0.000000 -0.000000 -3.091350 93.103400 2.713560 89.090100 3.356730 -1.680950 15.735700 0.000005 -0.000001 67.103700 87.963700 -57.334600 8.984550 -0.406207 -0.000000 -3.722240 -2.558510 19.466000 16.377300 -0.000001 -0.000001 5.189810 4.658980 9.292800 6.456720 -0.000001 -0.000000 -3.265740 4.623490 15.282500 12.994200 -0.242716 4.980390 -86.688900 -6.315540 -62.259100 5.348090 -0.000007 -0.000001 -32.762900 -59.012100 -70.957100 24.328600 0.000019 0.000005 2.143020 28.754800 -4.447770 22.291600 -0.000001 0.000005 49.107800 4.378040 18.572000 12.994500 -0.242716 -4.980390 89.321700 2.325910 -73.736100 -5.348130 -0.000001 -0.000004 -60.488700 1.835560 -4.211830 -24.328900 0.000322 -0.000009 1.481360 5.622710 -14.795500 -22.291500 -0.000108 -0.000004 7.363820 5.225880 2.061900 -2.192480 -6.469440 -0.000000 -171.689000 -10.106800 1.054130 39.081100 -0.000007 -0.000012 -0.008952 0.057423 8.860540 40.985400 -0.000006 -0.000013 -6.890950 19.929300 -64.868100 11.754300 -0.000000 0.000003 -0.001100 0.184445 -9.094700 -2.192510 6.469440 -0.000001 178.626000 7.365220 -179.093000 -39.081100 -0.002282 -0.040193 0.025500 -0.116124 10.805200 -40.985400 0.000008 0.000006 -3.792920 3.280710 -68.877100 -11.754300 -0.000006 -0.000006 -0.013060 0.292902 -4.666690
0.000000 0.000000 0.000000 0.000000 0.000000 -0.000000 -3.130420 93.106500 2.716360 89.081100 3.391530 -1.772040 15.735700 0.000005 -0.000001 66.521700 87.977600 -56.736400 8.984550 -0.406207 -0.000000 -3.760810 -2.590310 19.497100 16.377300 -0.000001 -0.000001 5.203370 4.666390 9.314900 6.456720 -0.000001 -0.000000 -3.350410 4.640960 15.227300 12.994200 -0.242716 4.980390 -86.698200 -6.284540 -62.209500 5.348090 -0.000007 -0.000001 -32.834900 -59.007300 -71.041700 24.328600 0.000019 0.000005 2.122710 28.758500 -4.405250 22.291600 -0.000001 0.000005 48.895700 4.377360 18.583100 12.994500 -0.242716 -4.980390 89.320500 2.329550 -73.733100 -5.348130 -0.000001 -0.000004 -60.521200 1.809920 -4.213470 -24.328900 0.000322 -0.000009 1.472160 5.567030 -14.847800 -22.291500 -0.000108 -0.000004 7.366500 5.224070 2.108220 -2.192480 -6.469440 -0.000000 -171.656000 -10.113700 0.997030 39.081100 -0.000007 -0.000012 -0.009309 0.060381 8.763870 40.985400 -0.000006 -0.000013 -7.054950 19.980800 -64.721000 11.754300 -0.000000 0.000003 -0.001003 0.183072 -9.150490 -2.192510 6.469440 -0.000001 178.676000 7.444090 -179.172000 -39.081100 -0.002282 -0.040193 0.025418 -0.115989 10.778400 -40.985400 0.000008 0.000006 -3.793360 3.287630 -68.864200 -11.754300 -0.000006 -0.000006 -0.013021 0.292643 -4.677340
0.000000 0.000000 0.000000 0.000000 0.000000 -0.000000 -3.162740 93.110100 2.744110 89.102500 3.452610 -1.783630 15.735700 0.000005 -0.000001 66.120200 87.980900 -56.326600 8.984550 -0.406207 -0.000000 -3.775850 -2.615650 19.512600 16.377300 -0.000001 -0.000001 5.169530 4.660550 9.274560 6.456720 -0.000001 -0.000000 -3.346210 4.629360 15.273000 12.994200 -0.242716 4.980390 -86.719600 -6.234790 -62.176500 5.348090 -0.000007 -0.000001 -33.026700 -58.976500 -71.301300 24.328600 0.000019 0.000005 2.076630 28.610400 -4.330180 22.291600 -0.000001 0.000005 48.907600 4.380720 18.529800 12.994500 -0.242716 -4.980390 89.320400 2.330900 -73.740400 -5.348130 -0.000001 -0.000004 -60.521500 1.786410 -4.212030 -24.328900 0.000322 -0.000009 1.454460 5.517550 -14.802700 -22.291500 -0.000108 -0.000004 7.288750 5.227610 2.017170 -2.192480 -6.469440 -0.000000 -171.626000 -10.108300 1.080140 39.081100 -0.000007 -0.000012 -0.009845 0.065315 8.571420 40.985400 -0.000006 -0.000013 -7.356440 20.058000 -64.472000 11.754300 -0.000000 0.000003 -0.000859 0.181017 -9.234000 -2.192510 6.469440 -0.000001 178.671000 7.474240 -179.125000 -39.081100 -0.002282 -0.040193 0.024642 -0.112637 10.710400 -40.985400 0.000008 0.000006 -3.829300 3.288730 -68.819800 -11.754300 -0.000006 -0.000006 -0.012773 0.290974 -4.745730
0.000000 0.000000 0.000000 0.000000 0.000000 -0.000000 -3.199920 93.109700 2.777700 89.096200 3.553960 -1.796940 15.735700 0.000005 -0.000001 65.679600 87.984000 -55.865900 8.984550 -0.406207 -0.000000 -3.790910 -2.644730 19.551700 16.377300 -0.000001 -0.000001 5.161700 4.658950 9.288410 6.456720 -0.000001 -0.000000 -3.406280 4.624550 15.240100 12.994200 -0.242716 4.980390 -86.745600 -6.183970 -62.172100 5.348090 -0.000007 -0.000001 -33.146000 -58.957900 -71.504900 24.328600 0.000019 0.000005 2.018440 28.584700 -4.212660 22.291600 -0.000001 0.000005 48.922600 4.382530 18.501100 12.994500 -0.242716 -4.980390 89.317800 2.334700 -73.707100 -5.348130 -0.000001 -0.000004 -60.511600 1.780680 -4.266510 -24.328900 0.000322 -0.000009 1.451410 5.526500 -14.750200 -22.291500 -0.000108 -0.000004 7.258880 5.227010 2.032600 -2.192480 -6.469440 -0.000000 -171.577000 -10.093400 1.111330 39.081100 -0.000007 -0.000012 -0.009854 0.066161 8.470470 40.985400 -0.000006 -0.000013 -7.442450 20.135600 -64.386700 11.754300 -0.000000 0.000003 -0.001007 0.183138 -9.147830 -2.192510 6.469440 -0.000001 178.717000 7.526200 -179.071000 -39.081100 -0.002282 -0.040193 0.024141 -0.110824 10.631500 -40.985400 0.000008 0.000006 -3.787560 3.200750 -68.821700 -11.754300 -0.000006 -0.000006 -0.013280 0.294370 -4.606540
0.000000 0.000000 0.000000 0.000000 0.000000 -0.000000 -3.218370 93.115300 2.815810 89.151700 3.660780 -1.793960 15.735700 0.000005 -0.000001 65.566000 87.986700 -55.760000 8.984550 -0.406207 -0.000000 -3.798980 -2.649710 19.536000 16.377300 -0.000001 -0.000001 5.108800 4.651620 9.285840 6.456720 -0.000001 -0.000000 -3.449270 4.615630 15.291000 12.994200 -0.242716 4.980390 -86.744600 -6.187880 -62.180200 5.348090 -0.000007 -0.000001 -33.298300 -58.955000 -71.644600 24.328600 0.000019 0.000005 2.028700 28.670500 -4.222470 22.291600 -0.000001 0.000005 48.819500 4.382670 18.498900 12.994500 -0.242716 -4.980390 89.313200 2.347840 -73.690400 -5.348130 -0.000001 -0.000004 -60.507000 1.778000 -4.290710 -24.328900 0.000322 -0.000009 1.466350 5.590100 -14.733600 -22.291500 -0.000108 -0.000004 7.307680 5.224800 2.089520 -2.192480 -6.469440 -0.000000 -171.583000 -10.015100 1.282430 39.081100 -0.000007 -0.000012 -0.009629 0.067379 8.132760 40.985400 -0.000006 -0.000013 -7.744510 20.195000 -64.080300 11.754300 -0.000000 0.000003 -0.000921 0.181901 -9.198100 -2.192510 6.469440 -0.000001 178.671000 7.537940 -178.991000 -39.081100 -0.002282 -0.040193 0.023168 -0.106319 10.565200 -40.985400 0.000008 0.000006 -3.893570 3.145540 -68.798400 -11.754300 -0.000006 -0.000006 -0.013140 0.293437 -4.644780
